
<svg width="32px" height="32px" viewBox="0 0 32 32" version="1.1" xmlns="http://www.w3.org/2000/svg" xmlns:xlink="http://www.w3.org/1999/xlink">
    <g id="Page-1" stroke="none" stroke-width="1" fill="none" fill-rule="evenodd">
        <g id="Customer-view" transform="translate(-295.000000, -476.000000)" fill="#FFFFFF">
            <g id="Group-2" transform="translate(262.000000, 443.000000)">
                <path d="M47,33 L34,33 C33.44922,33 33,33.44531 33,34 L33,47 C33,47.55469 33.44922,48 34,48 L47,48 C47.55078,48 48,47.55469 48,47 L48,34 C48,33.44531 47.55078,33 47,33 Z M46,46 L35,46 L35,35 L46,35 L46,46 Z M38,44 L43,44 C43.55078,44 44,43.55469 44,43 L44,38 C44,37.44531 43.55078,37 43,37 L38,37 C37.44922,37 37,37.44531 37,38 L37,43 C37,43.55469 37.44922,44 38,44 Z M39,39 L42,39 L42,42 L39,42 L39,39 Z M64,33 L51,33 C50.44922,33 50,33.44531 50,34 L50,47 C50,47.55469 50.44922,48 51,48 L64,48 C64.55078,48 65,47.55469 65,47 L65,34 C65,33.44531 64.55078,33 64,33 Z M63,46 L52,46 L52,35 L63,35 L63,46 Z M55,44 L60,44 C60.55078,44 61,43.55469 61,43 L61,38 C61,37.44531 60.55078,37 60,37 L55,37 C54.44922,37 54,37.44531 54,38 L54,43 C54,43.55469 54.44922,44 55,44 Z M56,39 L59,39 L59,42 L56,42 L56,39 Z M64,50 L51,50 C50.44922,50 50,50.44531 50,51 L50,64 C50,64.55469 50.44922,65 51,65 L64,65 C64.55078,65 65,64.55469 65,64 L65,51 C65,50.44531 64.55078,50 64,50 Z M63,63 L52,63 L52,52 L63,52 L63,63 Z M55,61 L60,61 C60.55078,61 61,60.55469 61,60 L61,55 C61,54.44531 60.55078,54 60,54 L55,54 C54.44922,54 54,54.44531 54,55 L54,60 C54,60.55469 54.44922,61 55,61 Z M56,56 L59,56 L59,59 L56,59 L56,56 Z M47,50 L42,50 C41.44922,50 41,50.44531 41,51 L41,55 L34,55 C33.44922,55 33,55.44531 33,56 L33,64 C33,64.55469 33.44922,65 34,65 L42,65 C42.55078,65 43,64.55469 43,64 L43,57 L47,57 C47.55078,57 48,56.55469 48,56 L48,51 C48,50.44531 47.55078,50 47,50 Z M41,63 L35,63 L35,57 L41,57 L41,63 Z M46,55 L43,55 L43,52 L46,52 L46,55 Z M33,51 C33,50.44531 33.44922,50 34,50 L38,50 C38.55078,50 39,50.44531 39,51 C39,51.55469 38.55078,52 38,52 L34,52 C33.44922,52 33,51.55469 33,51 Z M39,61 L37,61 L37,59 L39,59 L39,61 Z M48,59 L48,64 C48,64.55469 47.55078,65 47,65 L45,65 C44.44922,65 44,64.55469 44,64 C44,63.44531 44.44922,63 45,63 L46,63 L46,59 C46,58.44531 46.44922,58 47,58 C47.55078,58 48,58.44531 48,59 Z" id="Fill-1"></path>
            </g>
        </g>
    </g>
</svg>