
<svg width="30px" height="30px" viewBox="0 0 30 30" version="1.1" xmlns="http://www.w3.org/2000/svg" xmlns:xlink="http://www.w3.org/1999/xlink">
    <g id="Page-1" stroke="none" stroke-width="1" fill="none" fill-rule="evenodd">
        <g id="Manager-view" transform="translate(-295.000000, -470.000000)" fill="#9CA88D">
            <path d="M324.623681,481.613364 C324.584998,481.51498 324.533425,481.422449 324.471301,481.336945 C323.93093,480.644729 323.089316,480.255863 322.211394,480.291004 L322.059014,480.291004 C321.554982,480.27812 321.096681,479.997018 320.858724,479.553122 C320.834109,479.555463 320.814181,479.535554 320.816528,479.510958 C320.657114,479.234539 320.516455,479.007312 320.354686,478.730887 L320.353513,478.732059 C320.337105,478.727373 320.325381,478.713319 320.32421,478.695752 C320.055786,478.257711 320.040549,477.709539 320.282014,477.256267 C320.321867,477.229326 320.348828,477.187162 320.357032,477.139142 C320.815333,476.36261 320.898573,475.420894 320.585604,474.576417 C320.556299,474.473346 320.503552,474.379646 320.432051,474.299998 C319.920997,473.817432 319.384137,473.36299 318.823841,472.938983 C318.748823,472.902675 318.664428,472.864022 318.554244,472.821858 L318.553071,472.821858 C317.676289,472.641485 316.765538,472.887449 316.098567,473.48478 C316.055198,473.496492 316.016515,473.523433 315.988383,473.559741 C315.752778,473.758854 315.452694,473.8666 315.144429,473.859584 C314.959227,473.856069 314.77519,473.816247 314.604058,473.742459 C314.319224,473.620648 314.025008,473.519919 313.724936,473.442616 C313.24551,473.271613 312.895055,472.855824 312.807134,472.354517 C312.79893,472.301811 312.784862,472.250274 312.764937,472.201082 C312.65241,471.305062 312.107358,470.520314 311.306765,470.102183 C311.225886,470.055333 311.133287,470.030737 311.039514,470.030737 C310.351447,469.989754 309.66104,469.989754 308.971834,470.030737 C308.878061,470.038935 308.786632,470.064703 308.702236,470.105698 C307.902813,470.543738 307.361272,471.336702 307.244064,472.239738 C307.211242,472.27019 307.196004,472.313526 307.201867,472.356862 C307.123332,472.862847 306.769343,473.283316 306.284065,473.444961 C306.020329,473.519922 305.710867,473.637046 305.404943,473.744804 C305.226775,473.78814 305.046266,473.812736 304.864572,473.819764 C304.557478,473.81742 304.260916,473.712007 304.020618,473.519922 C303.984282,473.477758 303.9456,473.477758 303.909264,473.439105 L303.910437,473.439105 C303.244636,472.83942 302.332715,472.593459 301.455933,472.777352 C301.353957,472.779694 301.256667,472.821861 301.185166,472.893308 C300.604945,473.292698 300.064575,473.74717 299.573446,474.251955 C299.510148,474.336285 299.458575,474.428814 299.421066,474.528371 C299.091676,475.370509 299.176084,476.319241 299.648464,477.091096 C299.677769,477.128576 299.702384,477.167229 299.723482,477.20822 C299.964947,477.662662 299.948537,478.208465 299.682456,478.647705 C299.657841,478.64536 299.637913,478.665273 299.64026,478.689869 C299.474986,478.938174 299.328454,479.199361 299.201884,479.46877 C299.178439,479.467597 299.158514,479.48751 299.159688,479.510934 C298.934633,479.966545 298.46811,480.253524 297.959397,480.248816 L297.8035,480.248816 C296.926718,480.226562 296.090986,480.615434 295.543593,481.301774 C295.472092,481.380249 295.420516,481.475119 295.391214,481.57702 C295.207185,482.292655 295.077068,483.020013 295.000879,483.754388 C294.99619,483.856286 295.010256,483.957015 295.043075,484.05423 C295.32791,484.878798 295.976121,485.527687 296.801321,485.813467 C296.852897,485.824007 296.904471,485.838063 296.954874,485.855631 C297.430759,486.021951 297.771882,486.443593 297.833997,486.944899 L297.833997,486.987063 L297.833997,486.985891 C297.8633,487.289242 297.914875,487.590254 297.986376,487.885419 L297.986376,487.927583 C298.073116,488.430059 297.899637,488.940721 297.524535,489.28623 C297.479992,489.299114 297.441313,489.324882 297.413181,489.36119 C296.741528,489.903486 296.348853,490.717499 296.341832,491.579546 C296.351209,491.682617 296.376997,491.784516 296.41685,491.879389 C296.754431,492.566928 297.138884,493.22985 297.566728,493.864677 C297.601893,493.975946 297.688632,494.063791 297.799986,494.098929 C298.536095,494.511213 299.418728,494.567433 300.200567,494.251192 C300.255658,494.262904 300.313095,494.246506 300.354121,494.209028 C300.502984,494.158664 300.658874,494.132895 300.815962,494.134068 C300.984753,494.134068 301.151203,494.16335 301.308261,494.221913 C301.474709,494.285161 301.630599,494.374176 301.770103,494.485447 L302.46051,495.085133 L302.502706,495.127296 C302.88836,495.448218 303.077075,495.947186 303.000887,496.443785 C302.971582,496.489464 302.957518,496.54217 302.958691,496.596049 C302.785213,497.426462 302.983306,498.292018 303.499062,498.965495 C303.57408,499.048653 303.665509,499.114244 303.768659,499.156411 C304.468428,499.503089 305.203366,499.776006 305.959429,499.969254 C306.070783,500.010249 306.192687,500.010249 306.305203,499.969254 C307.126891,499.801765 307.830171,499.273529 308.219336,498.529769 C308.247467,498.493462 308.272082,498.454809 308.294354,498.413814 C308.524095,497.952327 309.010537,497.677101 309.523961,497.718089 L310.485124,497.718089 C310.991496,497.705206 311.465041,497.972254 311.714731,498.413814 C311.742863,498.450122 311.768651,498.488775 311.789749,498.529769 C312.178914,499.273529 312.882194,499.801762 313.703883,499.969254 L313.857436,499.969254 C313.899632,499.969254 313.96879,499.969254 313.920733,499.888438 C314.663893,499.656527 315.392949,499.383622 316.104451,499.069717 C316.208775,499.028723 316.301374,498.96196 316.375219,498.877632 C316.786649,498.390388 317.008192,497.770793 317.002311,497.132458 C317.002311,496.94974 316.983556,496.76701 316.948391,496.587824 C316.954251,496.507007 316.939013,496.426191 316.906194,496.353572 C316.84407,495.860481 317.049197,495.372067 317.446565,495.073394 C317.406713,495.033572 317.466493,494.972665 317.506346,495.013659 C317.752498,494.833286 317.983401,494.631839 318.196753,494.413974 L318.238949,494.413974 C318.489792,494.185578 318.816829,494.060249 319.156751,494.062588 C319.269278,494.061416 319.380632,494.075472 319.489651,494.104752 C319.534194,494.114122 319.577564,494.128176 319.61859,494.146916 C319.671336,494.156286 319.72174,494.17034 319.772143,494.18908 C319.936247,494.248814 320.103873,494.296837 320.276175,494.329631 C320.451999,494.36477 320.631341,494.382337 320.810664,494.38351 C321.293601,494.388196 321.770656,494.266385 322.193819,494.032124 L322.42825,493.797872 L322.427077,493.799044 C322.878356,493.17828 323.262839,492.512989 323.576955,491.813756 C323.623842,491.721228 323.64963,491.618157 323.651974,491.513914 C323.636736,490.653035 323.245225,489.842531 322.580624,489.295558 C322.544289,489.25925 322.505606,489.220597 322.46927,489.178433 C322.117615,488.885619 321.942973,488.431165 322.007429,487.979063 L322.007429,487.933385 C322.07893,487.638226 322.130506,487.337208 322.160982,487.033857 L322.160982,487.00106 C322.307501,486.113256 322.965086,485.891882 323.042445,485.891882 C323.103396,485.903594 323.165523,485.883681 323.207719,485.838003 C324.029408,485.556901 324.674084,484.912719 324.956572,484.092829 C324.989394,483.996787 325.004632,483.894885 324.998768,483.792987 C324.934301,483.057443 324.808879,482.327745 324.623678,481.61328 L324.623681,481.613364 Z M310.049484,490.999778 C308.456943,491.013479 306.923846,490.392428 305.78903,489.273619 C304.654273,488.15595 304.010412,486.631831 304.000125,485.039324 C303.989849,483.445589 304.613183,481.914748 305.733093,480.781063 C306.854144,479.648547 308.37821,479.008083 309.97192,479.000075 C311.564461,478.992085 313.095512,479.618853 314.22682,480.741082 C315.357018,481.86331 315.99518,483.389708 315.99974,484.982391 C316.01458,486.571567 315.39469,488.100244 314.277059,489.230422 C313.160567,490.359519 311.63881,490.996563 310.04963,490.999983 L310.049484,490.999778 Z" id="Fill-1"></path>
        </g>
    </g>
</svg>