
<svg width="34px" height="34px" viewBox="0 0 34 34" version="1.1" xmlns="http://www.w3.org/2000/svg" xmlns:xlink="http://www.w3.org/1999/xlink">
    <g id="Page-1" stroke="none" stroke-width="1" fill="none" fill-rule="evenodd">
        <g id="Manager-settings" transform="translate(-324.000000, -21.000000)" fill="#9CA88D">
            <path d="M324.397436,25.4977528 C325.747742,24.0979657 327.099641,22.7476602 328.497753,21.3974365 C329.027668,20.8675212 329.848058,20.8675212 330.379567,21.3974365 C333.804792,24.7747733 337.181965,28.1998347 340.557831,31.5757005 C343.983056,28.1983637 347.360229,24.7733023 350.736095,21.3974365 C351.26601,20.8675212 352.135882,20.8675212 352.665797,21.3974365 C354.016103,22.747742 355.41589,24.099641 356.766114,25.4977528 C357.296029,26.0276681 357.296029,26.8480583 356.766114,27.3795671 C353.388777,30.804792 349.963715,34.1819654 346.58785,37.5578312 C349.965186,40.9830561 353.390248,44.3602294 356.766114,47.7360952 C357.296029,48.2660105 357.296029,49.1358823 356.766114,49.6657976 L352.665797,53.766114 C352.135882,54.2960297 351.26601,54.2960297 350.736095,53.766114 C347.358758,50.3887772 343.983138,46.9637157 340.557831,43.5878499 C337.180494,46.9651867 333.804874,50.3902481 330.379567,53.766114 C329.849652,54.2960297 329.029262,54.2960297 328.497753,53.766114 C327.097966,52.4158085 325.74766,51.0160214 324.397436,49.6657976 C323.867521,49.1358823 323.867521,48.2660105 324.397436,47.7360952 C327.774773,44.3587584 331.199835,40.9831378 334.5757,37.5578312 C331.198364,34.1804944 327.773302,30.8048737 324.397436,27.3795671 C323.867521,26.8496518 323.867521,26.0292617 324.397436,25.4977528 Z" id="Fill-1"></path>
        </g>
    </g>
</svg>