
<svg width="33px" height="40px" viewBox="0 0 33 40" version="1.1" xmlns="http://www.w3.org/2000/svg" xmlns:xlink="http://www.w3.org/1999/xlink">
    <g id="Page-1" stroke="none" stroke-width="1" fill="none" fill-rule="evenodd">
        <g id="Customer-view" transform="translate(-52.000000, -475.000000)" fill="#FFFFFF">
            <g id="Group" transform="translate(17.000000, 446.000000)">
                <path d="M62.2085655,50 L62.2085655,46.8947185 L55,46.8947185 L55,43.1052815 L62.2085655,43.1052815 L62.2085655,40 L68,44.9684503 L62.2085655,50 Z M56.1404418,61.5446284 L51.801053,61.5446284 L51.801053,38.4502139 C51.801053,37.7846496 51.4281384,37.1190854 50.8082009,36.8539246 L38.03676,30.9314675 L56.1375902,30.9314675 L56.1375902,42.779177 L57.934345,42.779177 L57.9367689,29.9983464 C57.9367689,29.4653758 57.5033136,29 57.0068999,29 L35.929869,29 C35.4334553,29 35,29.4653758 35,29.9983464 L35,62.5431079 C35,63.0760784 35.4334553,63.5414543 35.929869,63.5414543 L38.0365802,63.5414543 L49.5681958,68.8659684 C50.6215514,69.3313443 51.8008733,68.5331863 51.8008733,67.2696791 L51.8008733,63.5414543 L57.070131,63.5414543 C57.5665447,63.5414543 58,63.0760784 58,62.5431079 L58,49.4993794 L56.2032451,49.4993794 L56.2008212,61.5447615 L56.1404418,61.5446284 Z" id="Fill-1"></path>
            </g>
        </g>
    </g>
</svg>