
<svg width="38px" height="28px" viewBox="0 0 38 28" version="1.1" xmlns="http://www.w3.org/2000/svg" xmlns:xlink="http://www.w3.org/1999/xlink">
    <g id="Page-1" stroke="none" stroke-width="1" fill="none" fill-rule="evenodd">
        <g id="Manager-view" transform="translate(-292.000000, -478.000000)" fill="#FFFFFF">
            <g id="Group-2" transform="translate(262.000000, 443.000000)">
                <path d="M53.6889099,52.4995139 C49.0150809,52.4995139 39.6868659,54.8442556 39.6868659,59.4985418 L39.6868659,63 L67.690954,63 L67.690954,59.4985418 C67.690954,54.8441558 58.362739,52.4995139 53.6889099,52.4995139 Z M36.1851086,44.7721166 L32.4732657,41.0602737 L30,43.5335394 L33.7118429,47.2453823 L30,50.9572251 L32.4732657,53.4343794 L36.1851086,49.718648 L39.8969514,53.4343794 L42.3702171,50.9572251 L38.6583743,47.2453823 L42.3702171,43.5335394 L39.8969514,41.0602737 L36.1851086,44.7721166 Z M53.6889099,48.9980557 C57.5564972,48.9980557 60.6879378,45.8666152 60.6879378,41.9990278 C60.6879378,38.1314405 57.5564972,35 53.6889099,35 C49.8213226,35 46.6898821,38.1314405 46.6898821,41.9990278 C46.6898821,45.8666152 49.8213226,48.9980557 53.6889099,48.9980557 Z" id="Fill-1"></path>
            </g>
        </g>
    </g>
</svg>